<?xml version="1.0" encoding="UTF-8" standalone="no"?><!DOCTYPE svg PUBLIC "-//W3C//DTD SVG 1.1//EN" "http://www.w3.org/Graphics/SVG/1.1/DTD/svg11.dtd"><!-- Generated by graphviz version 2.40.1 (20161225.0304)
 --><!-- Title: structs Pages: 1 --><svg xmlns="http://www.w3.org/2000/svg" xmlns:xlink="http://www.w3.org/1999/xlink" width="1870pt" height="163pt" viewBox="0.00 0.00 1870.00 162.80">
<g id="graph0" class="graph" transform="scale(1 1) rotate(0) translate(4 158.8)">
<title>structs</title>
<polygon fill="#ffffff" stroke="transparent" points="-4,4 -4,-158.8 1866,-158.8 1866,4 -4,4"/>
<g id="clust1" class="cluster">
<title>cluster_absensi</title>
<polygon fill="none" stroke="#000000" stroke-dasharray="1,5" points="8,-8 8,-146.8 618,-146.8 618,-8 8,-8"/>
<text text-anchor="middle" x="36.6045" y="-130.2" font-family="Times,serif" font-size="14.00" fill="#000000">absensi</text>
</g>
<g id="clust2" class="cluster">
<title>cluster_karyawan</title>
<polygon fill="none" stroke="#000000" stroke-dasharray="1,5" points="626,-8 626,-146.8 1236,-146.8 1236,-8 626,-8"/>
<text text-anchor="middle" x="661.2055" y="-130.2" font-family="Times,serif" font-size="14.00" fill="#000000">karyawan</text>
</g>
<g id="clust3" class="cluster">
<title>cluster_users</title>
<polygon fill="none" stroke="#000000" stroke-dasharray="1,5" points="1244,-8 1244,-146.8 1854,-146.8 1854,-8 1244,-8"/>
<text text-anchor="middle" x="1266.3822" y="-130.2" font-family="Times,serif" font-size="14.00" fill="#000000">users</text>
</g>
<!-- absensi -->
<g id="node1" class="node">
<title>absensi</title>
<polygon fill="#c0c0c0" stroke="transparent" points="396,-88 396,-108 537,-108 537,-88 396,-88"/>
<text text-anchor="start" x="445.8955" y="-93.4" font-family="Times,serif" font-size="14.00" fill="#000000">absensi</text>
<text text-anchor="start" x="398" y="-71.4" font-family="Times,serif" font-size="14.00" fill="#000000">id</text>
<text text-anchor="start" x="475.5659" y="-71.4" font-family="Times,serif" font-size="14.00" fill="#000000">INTEGER</text>
<text text-anchor="start" x="397.8422" y="-49.4" font-family="Times,serif" font-size="14.00" fill="#000000">employee_id</text>
<text text-anchor="start" x="475.5659" y="-49.4" font-family="Times,serif" font-size="14.00" fill="#000000">INTEGER</text>
<text text-anchor="start" x="398" y="-27.4" font-family="Times,serif" font-size="14.00" fill="#000000">timestamp</text>
<text text-anchor="start" x="476" y="-27.4" font-family="Times,serif" font-size="14.00" fill="#000000">TEXT</text>
</g>
<!-- absensi_idx -->
<g id="node2" class="node">
<title>absensi_idx</title>
<polygon fill="#c0c0c0" stroke="transparent" points="137,-55 137,-75 184,-75 184,-55 137,-55"/>
<text text-anchor="start" x="138.7272" y="-60.4" font-family="Times,serif" font-size="14.00" fill="#000000">indicies</text>
</g>
<!-- karyawan -->
<g id="node3" class="node">
<title>karyawan</title>
<polygon fill="#c0c0c0" stroke="transparent" points="1027,-88 1027,-108 1141,-108 1141,-88 1027,-88"/>
<text text-anchor="start" x="1056.7945" y="-93.4" font-family="Times,serif" font-size="14.00" fill="#000000">karyawan</text>
<text text-anchor="start" x="1029" y="-71.4" font-family="Times,serif" font-size="14.00" fill="#000000">id</text>
<text text-anchor="start" x="1079.5659" y="-71.4" font-family="Times,serif" font-size="14.00" fill="#000000">INTEGER</text>
<text text-anchor="start" x="1029" y="-49.4" font-family="Times,serif" font-size="14.00" fill="#000000">name</text>
<text text-anchor="start" x="1080" y="-49.4" font-family="Times,serif" font-size="14.00" fill="#000000">TEXT</text>
<text text-anchor="start" x="1028.9418" y="-27.4" font-family="Times,serif" font-size="14.00" fill="#000000">position</text>
<text text-anchor="start" x="1080" y="-27.4" font-family="Times,serif" font-size="14.00" fill="#000000">TEXT</text>
</g>
<!-- karyawan_idx -->
<g id="node4" class="node">
<title>karyawan_idx</title>
<polygon fill="#c0c0c0" stroke="transparent" points="755,-55 755,-75 802,-75 802,-55 755,-55"/>
<text text-anchor="start" x="756.7272" y="-60.4" font-family="Times,serif" font-size="14.00" fill="#000000">indicies</text>
</g>
<!-- users -->
<g id="node5" class="node">
<title>users</title>
<polygon fill="#c0c0c0" stroke="transparent" points="1641,-88 1641,-108 1763,-108 1763,-88 1641,-88"/>
<text text-anchor="start" x="1687.6178" y="-93.4" font-family="Times,serif" font-size="14.00" fill="#000000">users</text>
<text text-anchor="start" x="1643" y="-71.4" font-family="Times,serif" font-size="14.00" fill="#000000">id</text>
<text text-anchor="start" x="1701.5659" y="-71.4" font-family="Times,serif" font-size="14.00" fill="#000000">INTEGER</text>
<text text-anchor="start" x="1642.6802" y="-49.4" font-family="Times,serif" font-size="14.00" fill="#000000">username</text>
<text text-anchor="start" x="1702" y="-49.4" font-family="Times,serif" font-size="14.00" fill="#000000">TEXT</text>
<text text-anchor="start" x="1643" y="-27.4" font-family="Times,serif" font-size="14.00" fill="#000000">password</text>
<text text-anchor="start" x="1702" y="-27.4" font-family="Times,serif" font-size="14.00" fill="#000000">TEXT</text>
</g>
<!-- users_idx -->
<g id="node6" class="node">
<title>users_idx</title>
<polygon fill="#c0c0c0" stroke="transparent" points="1373,-55 1373,-75 1420,-75 1420,-55 1373,-55"/>
<text text-anchor="start" x="1374.7272" y="-60.4" font-family="Times,serif" font-size="14.00" fill="#000000">indicies</text>
</g>
</g>
</svg>